<svg width="49.181274" height="50.139282" viewBox="0 0 49.1813 50.1393" fill="none" xmlns="http://www.w3.org/2000/svg" xmlns:xlink="http://www.w3.org/1999/xlink">
	<desc>
			Created with Pixso.
	</desc>
	<defs/>
	<mask id="mask_1_717" fill="white">
		<path id="Combined Shape" d="M39.7423 16.268C39.106 15.1658 36.1733 15.2491 35.155 15.313C34.9246 15.3276 34.7021 15.3995 34.5022 15.515L28.3844 19.047L14.0867 9.82385C13.8853 9.69391 13.6266 9.68219 13.4191 9.80206L12.1465 10.5099C11.9803 10.6058 11.861 10.7657 11.8246 10.954L11.6343 11.9376C11.6024 12.1023 11.6429 12.2687 11.7267 12.4138L19.3854 24.2426L13.005 27.9263L8.64282 26.1962C8.33899 26.0757 7.99292 26.1997 7.83496 26.4858L7.59412 26.9218C7.47229 27.1423 7.48914 27.4134 7.63708 27.6172L10.2006 31.1482C9.55054 32.1891 9.07727 33.2449 9.38684 33.7811C9.69666 34.3177 10.8516 34.4386 12.0817 34.3994L13.8713 38.4153C13.9739 38.6454 14.2003 38.7955 14.4521 38.8003L14.9502 38.8097C15.277 38.8159 15.5574 38.5783 15.605 38.2549L16.2919 33.5834L22.661 29.9062L29.1189 42.538C29.2028 42.683 29.3265 42.8014 29.4851 42.8561L30.432 43.1831C30.6133 43.2457 30.8115 43.2224 30.9777 43.1264L32.2269 42.3782C32.4344 42.2584 32.5537 42.0286 32.5419 41.7891L31.698 24.6887L37.7738 21.1809C37.9736 21.0655 38.147 20.9091 38.2747 20.7169C38.8394 19.8676 40.3787 17.3702 39.7423 16.268Z" clip-rule="evenodd" fill="" fill-opacity="1.000000" fill-rule="evenodd"/>
	</mask>
	<path id="Combined Shape" d="M39.7423 16.268C39.106 15.1658 36.1733 15.2491 35.155 15.313C34.9246 15.3276 34.7021 15.3995 34.5022 15.515L28.3844 19.047L14.0867 9.82385C13.8853 9.69391 13.6266 9.68219 13.4191 9.80206L12.1465 10.5099C11.9803 10.6058 11.861 10.7657 11.8246 10.954L11.6343 11.9376C11.6024 12.1023 11.6429 12.2687 11.7267 12.4138L19.3854 24.2426L13.005 27.9263L8.64282 26.1962C8.33899 26.0757 7.99292 26.1997 7.83496 26.4858L7.59412 26.9218C7.47229 27.1423 7.48914 27.4134 7.63708 27.6172L10.2006 31.1482C9.55054 32.1891 9.07727 33.2449 9.38684 33.7811C9.69666 34.3177 10.8516 34.4386 12.0817 34.3994L13.8713 38.4153C13.9739 38.6454 14.2003 38.7955 14.4521 38.8003L14.9502 38.8097C15.277 38.8159 15.5574 38.5783 15.605 38.2549L16.2919 33.5834L22.661 29.9062L29.1189 42.538C29.2028 42.683 29.3265 42.8014 29.4851 42.8561L30.432 43.1831C30.6133 43.2457 30.8115 43.2224 30.9777 43.1264L32.2269 42.3782C32.4344 42.2584 32.5537 42.0286 32.5419 41.7891L31.698 24.6887L37.7738 21.1809C37.9736 21.0655 38.147 20.9091 38.2747 20.7169C38.8394 19.8676 40.3787 17.3702 39.7423 16.268Z" clip-rule="evenodd" fill="#FFFFFF" fill-opacity="1.000000" fill-rule="evenodd" mask="url(#mask_1_717)"/>
	<path id="Combined Shape" d="" fill="#979797" fill-opacity="0.000000" fill-rule="nonzero"/>
	<mask id="mask1_723" mask-type="alpha" maskUnits="userSpaceOnUse" x="0.000000" y="0.000061" width="49.181152" height="50.139099">
		<mask id="mask_1_723" fill="white">
			<path id="Combined Shape" d="M39.7423 16.268C39.106 15.1658 36.1733 15.2491 35.155 15.313C34.9246 15.3276 34.7021 15.3995 34.5022 15.515L28.3844 19.047L14.0867 9.82385C13.8853 9.69391 13.6266 9.68219 13.4191 9.80206L12.1465 10.5099C11.9803 10.6058 11.861 10.7657 11.8246 10.954L11.6343 11.9376C11.6024 12.1023 11.6429 12.2687 11.7267 12.4138L19.3854 24.2426L13.005 27.9263L8.64282 26.1962C8.33899 26.0757 7.99292 26.1997 7.83496 26.4858L7.59412 26.9218C7.47229 27.1423 7.48914 27.4134 7.63708 27.6172L10.2006 31.1482C9.55054 32.1891 9.07727 33.2449 9.38684 33.7811C9.69666 34.3177 10.8516 34.4386 12.0817 34.3994L13.8713 38.4153C13.9739 38.6454 14.2003 38.7955 14.4521 38.8003L14.9502 38.8097C15.277 38.8159 15.5574 38.5783 15.605 38.2549L16.2919 33.5834L22.661 29.9062L29.1189 42.538C29.2028 42.683 29.3265 42.8014 29.4851 42.8561L30.432 43.1831C30.6133 43.2457 30.8115 43.2224 30.9777 43.1264L32.2269 42.3782C32.4344 42.2584 32.5537 42.0286 32.5419 41.7891L31.698 24.6887L37.7738 21.1809C37.9736 21.0655 38.147 20.9091 38.2747 20.7169C38.8394 19.8676 40.3787 17.3702 39.7423 16.268Z" clip-rule="evenodd" fill="" fill-opacity="1.000000" fill-rule="evenodd"/>
		</mask>
		<path id="Combined Shape" d="M39.7423 16.268C39.106 15.1658 36.1733 15.2491 35.155 15.313C34.9246 15.3276 34.7021 15.3995 34.5022 15.515L28.3844 19.047L14.0867 9.82385C13.8853 9.69391 13.6266 9.68219 13.4191 9.80206L12.1465 10.5099C11.9803 10.6058 11.861 10.7657 11.8246 10.954L11.6343 11.9376C11.6024 12.1023 11.6429 12.2687 11.7267 12.4138L19.3854 24.2426L13.005 27.9263L8.64282 26.1962C8.33899 26.0757 7.99292 26.1997 7.83496 26.4858L7.59412 26.9218C7.47229 27.1423 7.48914 27.4134 7.63708 27.6172L10.2006 31.1482C9.55054 32.1891 9.07727 33.2449 9.38684 33.7811C9.69666 34.3177 10.8516 34.4386 12.0817 34.3994L13.8713 38.4153C13.9739 38.6454 14.2003 38.7955 14.4521 38.8003L14.9502 38.8097C15.277 38.8159 15.5574 38.5783 15.605 38.2549L16.2919 33.5834L22.661 29.9062L29.1189 42.538C29.2028 42.683 29.3265 42.8014 29.4851 42.8561L30.432 43.1831C30.6133 43.2457 30.8115 43.2224 30.9777 43.1264L32.2269 42.3782C32.4344 42.2584 32.5537 42.0286 32.5419 41.7891L31.698 24.6887L37.7738 21.1809C37.9736 21.0655 38.147 20.9091 38.2747 20.7169C38.8394 19.8676 40.3787 17.3702 39.7423 16.268Z" clip-rule="evenodd" fill="#FFFFFF" fill-opacity="1.000000" fill-rule="evenodd" mask="url(#mask_1_723)"/>
		<path id="Combined Shape" d="" fill="#979797" fill-opacity="0.000000" fill-rule="nonzero"/>
	</mask>
	<g mask="url(#mask1_723)">
		<rect id="Rectangle 7" x="28.843628" y="17.270935" width="1.308532" height="12.408354" transform="rotate(60 28.843628 17.270935)" fill="#EBECF2" fill-opacity="1.000000"/>
		<rect id="Rectangle 7" x="28.843628" y="17.270935" width="1.308532" height="12.408354" transform="rotate(60 28.843628 17.270935)" stroke="#979797" stroke-opacity="0" stroke-width="0.000000"/>
	</g>
	<g mask="url(#mask1_723)">
		<path id="Rectangle 5" d="M32.22 42.37C32.43 42.25 32.55 42.02 32.54 41.78L31.67 24.12L22.43 29.46L29.11 42.53C29.19 42.68 29.32 42.8 29.48 42.85L30.43 43.18C30.61 43.24 30.81 43.22 30.97 43.12L32.22 42.37Z" fill="#DEE1E3" fill-opacity="1.000000" fill-rule="evenodd"/>
		<path id="Rectangle 5" d="M31.67 24.12L22.43 29.46L29.11 42.53C29.2 42.68 29.32 42.8 29.48 42.85L30.43 43.18C30.61 43.24 30.81 43.22 30.97 43.12L32.22 42.37C32.43 42.25 32.55 42.02 32.54 41.78L31.67 24.12Z" stroke="#979797" stroke-opacity="0" stroke-width="0.000000"/>
	</g>
	<g mask="url(#mask1_723)">
		<g opacity="0.400000" style="mix-blend-mode:normal">
			<mask id="mask_1_731" fill="white">
				<path id="Combined Shape" d="M12.1442 34.2885L12.0552 34.3398L13.8715 38.4153C13.974 38.6455 14.2004 38.7955 14.4523 38.8003L14.9502 38.8098C15.277 38.8159 15.5575 38.5783 15.605 38.2549L16.3306 33.3205L15.8677 33.5878C15.7244 33.6706 15.5698 33.7325 15.4083 33.7685C14.8579 33.8914 13.462 34.1823 12.1442 34.2885Z" clip-rule="evenodd" fill="" fill-opacity="1.000000" fill-rule="evenodd"/>
			</mask>
			<path id="Combined Shape" d="M12.1442 34.2885L12.0552 34.3398L13.8715 38.4153C13.974 38.6455 14.2004 38.7955 14.4523 38.8003L14.9502 38.8098C15.277 38.8159 15.5575 38.5783 15.605 38.2549L16.3306 33.3205L15.8677 33.5878C15.7244 33.6706 15.5698 33.7325 15.4083 33.7685C14.8579 33.8914 13.462 34.1823 12.1442 34.2885Z" clip-rule="evenodd" fill="#DEE1E3" fill-opacity="1.000000" fill-rule="evenodd" mask="url(#mask_1_731)"/>
			<path id="Combined Shape" d="" fill="#979797" fill-opacity="0.000000" fill-rule="nonzero"/>
		</g>
	</g>
	<g mask="url(#mask1_723)">
		<mask id="mask_1_734" fill="white">
			<path id="Combined Shape" d="M22.5559 29.7006L31.6853 24.4297L31.7845 26.4411L24.2637 33.041L22.5559 29.7006Z" clip-rule="evenodd" fill="" fill-opacity="1.000000" fill-rule="evenodd"/>
		</mask>
		<path id="Combined Shape" d="M22.5559 29.7006L31.6853 24.4297L31.7845 26.4411L24.2637 33.041L22.5559 29.7006Z" clip-rule="evenodd" fill="#C5C6CC" fill-opacity="1.000000" fill-rule="evenodd" mask="url(#mask_1_734)"/>
		<path id="Combined Shape" d="" fill="#979797" fill-opacity="0.000000" fill-rule="nonzero"/>
	</g>
	<g mask="url(#mask1_723)">
		<path id="Combined Shape" d="M40.78 19.43L10.99 36.63C10.99 36.63 10.11 35.05 9.38 33.78C9.37 33.76 9.36 33.75 9.36 33.73C10.71 33.83 13.43 33.72 16.07 32.19L36.69 20.29C38.98 18.96 39.55 17.25 39.86 16.51C40.33 17.8 40.78 19.43 40.78 19.43Z" fill="#DEE1E3" fill-opacity="1.000000" fill-rule="evenodd"/>
		<path id="Combined Shape" d="M10.99 36.63C10.99 36.63 10.11 35.05 9.38 33.78C9.37 33.76 9.36 33.75 9.36 33.73C10.71 33.83 13.43 33.72 16.07 32.19L36.69 20.29C38.98 18.96 39.55 17.25 39.86 16.51C40.33 17.8 40.78 19.43 40.78 19.43L10.99 36.63Z" stroke="#979797" stroke-opacity="0" stroke-width="0.000000"/>
	</g>
</svg>
